<svg width="32" height="32" viewBox="0 0 32 32" fill="none" xmlns="http://www.w3.org/2000/svg">
<path d="M16.0013 6.03863C17.525 4.6755 19.5128 3.94746 21.5565 4.004C23.6002 4.06053 25.5446 4.89735 26.9907 6.34263C28.4351 7.78688 29.2724 9.72895 29.3309 11.7707C29.3894 13.8125 28.6647 15.7994 27.3053 17.324L15.9987 28.6466L4.69467 17.324C3.33367 15.7986 2.60827 13.81 2.66738 11.7666C2.72649 9.72317 3.56563 7.7799 5.01253 6.33573C6.45942 4.89157 8.40428 4.0561 10.4478 4.00085C12.4914 3.9456 14.4785 4.67476 16.0013 6.03863ZM25.1027 8.22663C24.1391 7.26472 22.8442 6.70773 21.4832 6.6698C20.1222 6.63187 18.7983 7.11588 17.7827 8.02263L16.0027 9.61996L14.2213 8.02396C13.2102 7.11982 11.8926 6.63489 10.5366 6.66786C9.18062 6.70082 7.88813 7.24921 6.92216 8.20142C5.95619 9.15363 5.38932 10.4381 5.3369 11.7935C5.28448 13.1489 5.75045 14.4733 6.64 15.4973L16 24.872L25.36 15.4986C26.2458 14.4792 26.7119 13.1616 26.6641 11.8119C26.6163 10.4622 26.0583 9.18092 25.1027 8.22663Z" fill="#EBEBEB"/>
</svg>
