<svg width="32" height="32" viewBox="0 0 32 32" fill="none" xmlns="http://www.w3.org/2000/svg">
<path d="M13.3333 21.3333C15.5556 21.3333 17.4444 20.5555 19 19C20.5556 17.4444 21.3333 15.5555 21.3333 13.3333C21.3333 11.1111 20.5556 9.22218 19 7.66663C17.4444 6.11107 15.5556 5.33329 13.3333 5.33329C11.1111 5.33329 9.22222 6.11107 7.66667 7.66663C6.11111 9.22218 5.33333 11.1111 5.33333 13.3333C5.33333 15.5555 6.11111 17.4444 7.66667 19C9.22222 20.5555 11.1111 21.3333 13.3333 21.3333ZM13.3333 24C10.3556 24 7.83333 22.9666 5.76667 20.9C3.7 18.8333 2.66667 16.3111 2.66667 13.3333C2.66667 10.3555 3.7 7.83329 5.76667 5.76663C7.83333 3.69996 10.3556 2.66663 13.3333 2.66663C16.3111 2.66663 18.8333 3.69996 20.9 5.76663C22.9667 7.83329 24 10.3555 24 13.3333C24 14.5777 23.8058 15.7502 23.4173 16.8506C23.0289 17.9511 22.4787 18.9564 21.7667 19.8666L28.4 26.5C28.6667 26.7666 28.8 27.0835 28.8 27.4506C28.8 27.8177 28.6667 28.1342 28.4 28.4C28.1333 28.6657 27.8169 28.7991 27.4507 28.8C27.0844 28.8008 26.7676 28.6675 26.5 28.4L19.8667 21.7666C18.9556 22.4777 17.9502 23.028 16.8507 23.4173C15.7511 23.8066 14.5787 24.0008 13.3333 24Z" fill="#EBEBEB"/>
</svg>
