<svg width="159" height="105" viewBox="0 0 159 105" fill="none" xmlns="http://www.w3.org/2000/svg">
<g clip-path="url(#clip0_11_40)">
<path fill-rule="evenodd" clip-rule="evenodd" d="M116.047 -6.53568e-05C122.135 4.59828 125.53 9.5661 125.761 15.0899C126.278 24.1156 123.987 34.5318 121.307 45.1575C139.128 55.267 143.887 68.6027 137.091 84.7919C129.616 55.0914 112.402 57.1581 100.555 47.1931C94.4404 60.9242 99.925 72.3729 117.327 73.4969C125.941 75.4277 130.841 81.1857 130.235 92.6171H150.416C156.239 94.8415 159.212 98.8948 158.988 104.999H118.951C112.599 102.652 109.169 98.6134 108.752 92.8347H115.804C120.453 91.5035 119.739 85.517 115.804 85.0008C91.4662 85.8646 78.6809 59.3065 91.7326 39.9779C84.4774 39.3679 77.5123 42.1833 72.0265 39.4461L95.5503 15.5986H100.297L116.046 -0.000640869L116.047 -6.53568e-05ZM0 62.8378C15.0644 62.4275 21.6958 42.3651 35.0017 37.993C51.6415 32.5256 68.6795 43.9023 68.7387 60.6302C83.2622 60.8903 97.0762 74.7607 87.4839 92.8347H97.5998C103.941 95.2023 106.463 99.4237 106.194 104.999H46.7633V76.8124C48.4849 72.1974 50.9384 68.6781 53.8107 66.1131C52.5362 64.1368 49.7956 63.6372 48.0867 65.7154C34.0155 82.8282 17.3659 82.2412 0.000575393 62.8372L0 62.8378ZM21.1854 65.1968C22.7487 65.8869 24.3345 66.3318 25.8961 66.4158C31.287 66.7041 35.9977 62.2094 39.1612 58.3626C43.4945 53.0927 49.4481 51.8444 54.656 53.3442C51.1599 48.9162 44.5941 47.0216 38.6071 48.9887C34.794 50.2416 29.3496 56.845 26.6344 59.7738C24.8616 61.6862 23.06 63.5175 21.186 65.198L21.1854 65.1968ZM58.2113 79.2992V92.8353C63.2702 92.9596 73.6635 93.2456 76.7585 88.4096C79.4658 84.179 79.54 78.2633 75.171 74.8574C70.5115 71.2259 63.4284 72.4063 59.7171 76.9586C59.1026 77.7131 58.6573 78.4365 58.2113 79.2992ZM114.486 18.6442C104.255 26.6335 99.6557 33.7693 110.978 38.4902L114.486 18.6442Z" fill="#EBEBEB"/>
</g>
<defs>
<clipPath id="clip0_11_40">
<rect width="159" height="105" fill="white"/>
</clipPath>
</defs>
</svg>
