<svg width="32" height="32" viewBox="0 0 32 32" fill="none" xmlns="http://www.w3.org/2000/svg">
<g clip-path="url(#clip0_43_72)">
<path d="M16.184 6.05064C16.6326 5.87139 17.1216 5.81739 17.5985 5.89441C18.0755 5.97144 18.5226 6.1766 18.892 6.48797L19.06 6.64131L25.3587 12.94C25.7007 13.2817 25.9435 13.7099 26.0609 14.1789C26.1783 14.648 26.166 15.1401 26.0253 15.6026L25.9493 15.816L22.796 23.7C22.6191 24.1413 22.3274 24.5273 21.9511 24.818C21.5748 25.1087 21.1277 25.2935 20.656 25.3533L13.884 26.2C13.7098 26.2204 13.5275 26.2453 13.3373 26.2746L12.7453 26.3706L12.436 26.4266L11.472 26.6133L10.812 26.7546L9.81865 26.9773L8.54532 27.2813L6.47599 27.8093L5.61465 28.0413C5.39729 28.1011 5.16839 28.1053 4.94896 28.0536C4.72953 28.002 4.52658 27.8961 4.35872 27.7456C4.19086 27.5951 4.06346 27.4049 3.9882 27.1924C3.91295 26.9799 3.89224 26.7519 3.92799 26.5293L3.97332 26.3346L4.36665 24.852L4.71865 23.4546L5.02265 22.1813L5.24532 21.188L5.38532 20.5266L5.57332 19.564L5.67999 18.9546L5.76532 18.384L6.64532 11.344C6.70075 10.9095 6.86234 10.4954 7.11582 10.1382C7.36929 9.781 7.70685 9.49174 8.09865 9.29597L8.29999 9.20397L16.184 6.05064ZM17.1733 8.52664L9.29065 11.68L8.51199 17.9093L8.44799 18.4373C8.31712 19.4182 8.14586 20.3932 7.93465 21.36L7.70665 22.408L12.0907 18.024C11.9387 17.4569 11.978 16.8556 12.2027 16.3132C12.4273 15.7709 12.8246 15.3178 13.333 15.0242C13.8413 14.7307 14.4324 14.6131 15.0144 14.6897C15.5964 14.7663 16.1369 15.0328 16.552 15.4479C16.9671 15.8631 17.2336 16.4035 17.3103 16.9856C17.3869 17.5676 17.2693 18.1586 16.9757 18.667C16.6822 19.1754 16.2291 19.5727 15.6867 19.7973C15.1444 20.0219 14.543 20.0613 13.976 19.9093L9.59199 24.2933L10.1147 24.1773L11.16 23.9573C11.8114 23.8243 12.4663 23.7087 13.124 23.6106L20.32 22.7093L23.4733 14.8266L17.1733 8.52664ZM20.324 4.13464C20.5534 3.90488 20.8588 3.76672 21.1828 3.7461C21.5069 3.72548 21.8273 3.82381 22.084 4.02264L22.2093 4.13464L27.8653 9.79064C28.107 10.03 28.248 10.3527 28.2596 10.6927C28.2711 11.0327 28.1523 11.3642 27.9274 11.6194C27.7025 11.8746 27.3885 12.0342 27.0498 12.0656C26.7111 12.0969 26.3732 11.9976 26.1053 11.788L25.98 11.676L20.324 6.01997C20.074 5.76994 19.9336 5.43086 19.9336 5.07731C19.9336 4.72376 20.074 4.38468 20.324 4.13464Z" fill="#EBEBEB"/>
</g>
<defs>
<clipPath id="clip0_43_72">
<rect width="32" height="32" fill="white"/>
</clipPath>
</defs>
</svg>
