<svg width="150" height="31" viewBox="0 0 150 31" fill="none" xmlns="http://www.w3.org/2000/svg">
<g clip-path="url(#clip0_2_9)">
<path fill-rule="evenodd" clip-rule="evenodd" d="M33.7543 -0.000227021C35.525 1.35743 36.5126 2.82405 36.5797 4.45494C36.7301 7.11969 36.0636 10.195 35.2842 13.332C40.4675 16.3168 41.8521 20.2539 39.8753 25.0337C37.7012 16.2649 32.694 16.875 29.2479 13.9333C27.4693 17.9871 29.0647 21.3672 34.1264 21.6991C36.632 22.2692 38.0572 23.9691 37.8809 27.3441H43.7511C45.4446 28.0009 46.3093 29.1975 46.2443 30.9998H34.5988C32.7512 30.3067 31.7537 29.1145 31.6322 27.4083H33.6836C35.0359 27.0152 34.8281 25.2479 33.6836 25.0953C26.6044 25.3502 22.8856 17.5094 26.682 11.8028C24.5716 11.6227 22.5457 12.4538 20.95 11.6458L27.7923 4.60513H29.1731L33.7541 -0.000396729L33.7543 -0.000227021ZM-0.000229566 18.5519C4.38159 18.4307 6.31047 12.5076 10.1806 11.2168C15.0206 9.60268 19.9765 12.9614 19.9937 17.9C24.218 17.9769 28.2363 22.072 25.446 27.4081H28.3884C30.2329 28.1071 30.9664 29.3534 30.8881 30.9996H13.6016V22.6778C14.1024 21.3152 14.816 20.2763 15.6515 19.519C15.2807 18.9354 14.4835 18.7881 13.9864 19.4018C9.89342 24.454 5.05057 24.2807 -0.000396729 18.5521L-0.000229566 18.5519ZM6.16186 19.2484C6.61655 19.452 7.07791 19.5834 7.53192 19.6081C9.0999 19.6933 10.4703 18.3662 11.3904 17.2304C12.6508 15.6745 14.3824 15.3059 15.8974 15.7486C14.8805 14.4412 12.9707 13.8819 11.2292 14.4628C10.1201 14.8327 8.5364 16.7822 7.74673 17.6468C7.23103 18.2114 6.70698 18.7521 6.16186 19.2482V19.2484ZM16.9314 23.4118V27.4081C18.4028 27.4449 21.4259 27.5293 22.3261 26.1013C23.1136 24.8523 23.1353 23.1058 21.8642 22.1003C20.509 21.0281 18.4488 21.3767 17.3692 22.7208C17.1904 22.9434 17.061 23.1571 16.9313 23.4118H16.9314ZM33.2999 5.50424C30.3243 7.86301 28.9863 9.96976 32.2796 11.3634L33.2999 5.50424Z" fill="#E71B5A"/>
<path d="M109.235 29.0765C108.601 29.0765 108.098 28.8888 107.725 28.5109C107.355 28.1328 107.168 27.6222 107.168 26.9786C107.168 26.338 107.355 25.8272 107.725 25.4492C108.098 25.0711 108.601 24.8836 109.235 24.8836C109.866 24.8836 110.369 25.0713 110.741 25.4492C111.114 25.8273 111.298 26.338 111.298 26.9786C111.298 27.6222 111.113 28.133 110.741 28.5109C110.369 28.889 109.866 29.0765 109.235 29.0765ZM61.6945 14.8428C60.9754 14.8428 60.3783 14.6813 59.9064 14.358C59.4316 14.0318 59.0251 13.5211 58.6811 12.8228L58.8374 12.8401V14.6062H55.6733V1.92331H59.005V7.25044L58.8146 7.12349C59.1757 6.454 59.5963 5.97203 60.0767 5.67775C60.5571 5.3862 61.12 5.23906 61.7711 5.23906C62.5472 5.23906 63.2123 5.42659 63.7611 5.80181C64.3097 6.17703 64.7305 6.7223 65.0232 7.44085C65.3132 8.15939 65.461 9.03389 65.461 10.0669C65.461 11.0855 65.3131 11.9542 65.0175 12.667C64.7246 13.3798 64.2955 13.9194 63.7354 14.2887C63.1754 14.658 62.4959 14.8428 61.6942 14.8428H61.6945ZM60.4209 12.3668C60.9155 12.3668 61.2963 12.1504 61.5665 11.7233C61.8366 11.2961 61.9701 10.7191 61.9701 9.99749C61.9701 9.27607 61.8393 8.7162 61.575 8.3123C61.3105 7.90822 60.9326 7.70627 60.4379 7.70627C60.1223 7.70627 59.841 7.79571 59.5964 7.97458C59.3521 8.15056 59.1615 8.41327 59.0251 8.75948C58.8915 9.10585 58.8233 9.52995 58.8233 10.0321C58.8233 10.7882 58.9739 11.3653 59.2753 11.7664C59.5794 12.1647 59.9604 12.3666 60.4211 12.3666L60.4209 12.3668ZM66.8911 14.6061V5.47546H70.1404V7.62243L69.9983 7.31951C70.2997 6.60385 70.6977 6.07572 71.1978 5.74105C71.6981 5.40639 72.2782 5.23889 72.9377 5.23889C73.1225 5.23889 73.3129 5.25331 73.5092 5.28216C73.7054 5.30813 73.9072 5.35718 74.1118 5.42353L73.9214 8.21404C73.5149 8.10729 73.1339 8.05247 72.773 8.05247C72.4347 8.05247 72.1107 8.11017 71.8008 8.21981C71.4937 8.32944 71.2209 8.50831 70.9849 8.75948C70.749 9.01064 70.5641 9.34819 70.4277 9.76958C70.2913 10.1938 70.2231 10.7133 70.2231 11.3338V14.6062H66.8914L66.8911 14.6061ZM79.4677 14.8426C78.5665 14.8426 77.7364 14.6465 76.9716 14.2539C76.2098 13.8643 75.5929 13.3073 75.1266 12.5859C74.6604 11.8644 74.4274 11.0074 74.4274 10.0146C74.4274 9.03932 74.6547 8.19656 75.1067 7.48378C75.5587 6.77101 76.1671 6.21691 76.9318 5.82727C77.6937 5.4349 78.5464 5.23855 79.4847 5.23855C79.9936 5.23855 80.5138 5.31356 81.0453 5.46647C81.5741 5.61937 82.0659 5.89074 82.515 6.2831C82.9642 6.67258 83.3281 7.22379 83.6009 7.93368C83.8767 8.64645 84.0131 9.55829 84.0131 10.6751H76.5679V9.01573H81.0255L80.8663 9.39673C80.8095 8.94072 80.7157 8.57144 80.5791 8.28565C80.4426 8.00003 80.2721 7.79214 80.0703 7.65943C79.8685 7.52672 79.6382 7.46019 79.3822 7.46019C79.0126 7.46019 78.7143 7.57848 78.4924 7.81234C78.2708 8.04602 78.1086 8.35778 78.0092 8.74726C77.9097 9.13385 77.8586 9.56389 77.8586 10.0314C77.8586 10.7471 77.9779 11.33 78.2168 11.7772C78.4557 12.2246 78.8622 12.4496 79.4336 12.4496C79.7661 12.4496 80.0618 12.3602 80.3177 12.1842C80.5706 12.0053 80.7782 11.7137 80.9317 11.307L83.8654 11.9765C83.6522 12.6806 83.3082 13.2433 82.8306 13.6618C82.353 14.083 81.8158 14.3832 81.2187 14.5679C80.6218 14.7496 80.039 14.842 79.4675 14.842L79.4677 14.8426ZM85.4887 14.6061V5.47546H88.738V7.61378L88.6698 7.23278C88.9712 6.56906 89.3635 6.06995 89.8494 5.738C90.3355 5.40605 90.9211 5.23872 91.612 5.23872C92.354 5.23872 92.9453 5.41182 93.3802 5.7638C93.818 6.11288 94.1279 6.5862 94.3183 7.18357C94.5059 7.78094 94.5998 8.44755 94.5998 9.18629V14.6057H91.2708V9.38824C91.2708 8.81972 91.1998 8.39851 91.0604 8.12137C90.9211 7.84441 90.6625 7.70593 90.2787 7.70593C89.767 7.70593 89.3974 7.95981 89.1671 8.46486C88.9369 8.96703 88.8204 9.77501 88.8204 10.8861V14.6059H85.4887V14.6061ZM100.763 14.8426C99.8078 14.8426 98.9663 14.6405 98.2413 14.2337C97.5135 13.8268 96.945 13.2642 96.5384 12.5399C96.129 11.8156 95.9244 10.9787 95.9244 10.0323C95.9244 9.09142 96.129 8.26037 96.5384 7.53894C96.945 6.81751 97.5135 6.25187 98.2413 5.8478C98.9663 5.44084 99.8076 5.23889 100.763 5.23889C101.724 5.23889 102.568 5.44084 103.296 5.8478C104.024 6.25187 104.592 6.81734 105.004 7.53894C105.414 8.26037 105.618 9.09431 105.618 10.0409C105.618 10.9876 105.414 11.8215 105.004 12.5429C104.592 13.2644 104.021 13.8271 103.29 14.2339C102.562 14.6409 101.718 14.8428 100.763 14.8428V14.8426ZM100.771 12.4589C101.212 12.4589 101.556 12.2426 101.809 11.8067C102.062 11.3738 102.187 10.7851 102.187 10.0406C102.187 9.29609 102.062 8.70738 101.809 8.27445C101.556 7.83864 101.212 7.62226 100.771 7.62226C100.334 7.62226 99.9868 7.83864 99.7367 8.27445C99.4838 8.70738 99.3558 9.29609 99.3558 10.0406C99.3558 10.7909 99.4837 11.3796 99.7367 11.8125C99.9868 12.2426 100.334 12.4589 100.771 12.4589ZM55.665 28.8396V19.709H58.9143V21.8473L58.8461 21.4663C59.1474 20.8026 59.5396 20.3035 60.0257 19.9716C60.5118 19.6396 61.0974 19.4723 61.7883 19.4723C62.5303 19.4723 63.1216 19.6454 63.5565 19.9974C63.9943 20.3464 64.3042 20.8198 64.4946 21.4171C64.6822 22.0145 64.776 22.6811 64.776 23.4198V28.8393H61.4471V23.6218C61.4471 23.0533 61.3761 22.6321 61.2366 22.3549C61.0974 22.078 60.8388 21.9395 60.455 21.9395C59.9433 21.9395 59.5737 22.1934 59.3434 22.6984C59.1132 23.2006 58.9965 24.0086 58.9965 25.1196V28.8395H55.6648L55.665 28.8396ZM71.1241 29.0762C70.2229 29.0762 69.3928 28.88 68.6282 28.4875C67.8665 28.0978 67.2495 27.5409 66.7832 26.8194C66.317 26.098 66.084 25.241 66.084 24.2482C66.084 23.2729 66.3113 22.4301 66.7634 21.7173C67.2154 21.0046 67.8237 20.4505 68.5884 20.0608C69.3502 19.6685 70.203 19.4721 71.1412 19.4721C71.65 19.4721 72.1702 19.5471 72.702 19.7C73.2307 19.8529 73.7225 20.1243 74.1716 20.5167C74.6208 20.9061 74.9847 21.4573 75.2575 22.1672C75.5333 22.88 75.6697 23.7918 75.6697 24.9087H68.2245V23.2493H72.6821L72.5229 23.6303C72.4661 23.1743 72.3721 22.805 72.2357 22.5192C72.0992 22.2336 71.9287 22.0257 71.7269 21.893C71.5251 21.7603 71.2948 21.6938 71.039 21.6938C70.6694 21.6938 70.371 21.812 70.1492 22.0459C69.9276 22.2796 69.7654 22.5913 69.666 22.9808C69.5665 23.3674 69.5153 23.7974 69.5153 24.265C69.5153 24.9806 69.6347 25.5636 69.8736 26.0108C70.1124 26.4581 70.5188 26.6832 71.0903 26.6832C71.423 26.6832 71.7185 26.5937 71.9745 26.4177C72.2274 26.2389 72.435 25.9473 72.5884 25.5405L75.5221 26.21C75.3088 26.9141 74.965 27.4769 74.4874 27.8954C74.0098 28.3166 73.4726 28.6168 72.8755 28.8014C72.2785 28.9832 71.6958 29.0755 71.1243 29.0755L71.1241 29.0762ZM79.2687 28.8396L75.8459 19.709H79.5757L81.3098 26.2684H81.1079L82.8335 19.709H86.5632L83.1406 28.8396H79.2686H79.2687ZM91.7629 29.0762C90.8618 29.0762 90.0316 28.88 89.2669 28.4875C88.5051 28.0978 87.8881 27.5409 87.4219 26.8194C86.9557 26.098 86.7227 25.241 86.7227 24.2482C86.7227 23.2729 86.95 22.4301 87.402 21.7173C87.854 21.0046 88.4623 20.4505 89.2271 20.0608C89.989 19.6685 90.8417 19.4721 91.78 19.4721C92.2888 19.4721 92.809 19.5471 93.3406 19.7C93.8693 19.8529 94.3611 20.1243 94.8103 20.5167C95.2595 20.9061 95.6234 21.4573 95.8962 22.1672C96.172 22.88 96.3084 23.7918 96.3084 24.9087H88.8632V23.2493H93.3207L93.1616 23.6303C93.1047 23.1743 93.011 22.805 92.8746 22.5192C92.738 22.2336 92.5675 22.0257 92.3657 21.893C92.164 21.7603 91.9336 21.6938 91.6779 21.6938C91.3083 21.6938 91.0097 21.812 90.7881 22.0459C90.5664 22.2796 90.4042 22.5913 90.3048 22.9808C90.2053 23.3674 90.1542 23.7974 90.1542 24.265C90.1542 24.9806 90.2735 25.5636 90.5124 26.0108C90.7511 26.4581 91.1576 26.6832 91.7292 26.6832C92.0617 26.6832 92.3574 26.5937 92.6133 26.4177C92.8664 26.2389 93.0738 25.9473 93.2273 25.5405L96.161 26.21C95.9478 26.9141 95.6038 27.4769 95.1262 27.8954C94.6487 28.3166 94.1114 28.6168 93.5143 28.8014C92.9174 28.9832 92.3346 29.0755 91.7631 29.0755L91.7629 29.0762ZM101.673 29.0762C100.974 29.0762 100.294 28.9839 99.6403 28.7962C98.9837 28.6115 98.4294 28.3142 97.9743 27.9045C97.5197 27.4976 97.2352 26.9552 97.1243 26.277L100.015 25.6941C100.058 26.049 100.192 26.3232 100.413 26.5136C100.635 26.7069 101.005 26.8021 101.522 26.8021C102.011 26.8021 102.346 26.73 102.534 26.5857C102.719 26.4415 102.813 26.2828 102.813 26.1095C102.813 25.9509 102.73 25.7893 102.562 25.6277C102.398 25.4633 102.056 25.3506 101.548 25.29L100.939 25.2121C100.601 25.1689 100.228 25.1054 99.8277 25.0275C99.424 24.9467 99.043 24.8198 98.6819 24.6467C98.3209 24.4707 98.0252 24.2195 97.795 23.8906C97.5648 23.5587 97.4481 23.1259 97.4481 22.5834C97.4481 21.9744 97.6103 21.4378 97.9371 20.9674C98.2612 20.4999 98.7274 20.1335 99.3386 19.8709C99.9497 19.6053 100.678 19.4728 101.522 19.4728C102.215 19.4728 102.869 19.5709 103.486 19.7671C104.103 19.9661 104.626 20.2606 105.058 20.6558C105.487 21.0512 105.763 21.5475 105.885 22.1448L103.054 22.7451C103.014 22.598 102.955 22.4422 102.869 22.2804C102.787 22.116 102.653 21.9775 102.471 21.8621C102.287 21.7438 102.025 21.6861 101.681 21.6861C101.326 21.6861 101.067 21.7525 100.911 21.8823C100.751 22.0121 100.672 22.1621 100.672 22.3295C100.672 22.5172 100.749 22.6614 100.905 22.7682C101.061 22.8778 101.26 22.9586 101.502 23.0136C101.741 23.0713 101.991 23.1174 102.247 23.1492L103.046 23.2501C103.529 23.3136 103.998 23.4434 104.458 23.6398C104.916 23.8389 105.294 24.1275 105.59 24.5112C105.885 24.8949 106.036 25.3971 106.036 26.0147C106.036 26.6986 105.843 27.2671 105.456 27.7202C105.07 28.1734 104.546 28.5138 103.887 28.7388C103.225 28.9639 102.488 29.0765 101.672 29.0765L101.673 29.0762Z" fill="#EBEBEB"/>
<path d="M115.844 29.0765C115.108 29.0765 114.519 28.9006 114.079 28.5513C113.641 28.2022 113.328 27.7289 113.138 27.1315C112.95 26.5342 112.856 25.8675 112.856 25.1288V19.7094H116.188V24.6872C116.188 25.4144 116.302 25.9166 116.529 26.1936C116.757 26.4705 117.055 26.609 117.428 26.609C117.567 26.609 117.732 26.5686 117.919 26.4936C118.107 26.4186 118.275 26.2513 118.42 26.0001C118.565 25.7462 118.636 25.3537 118.636 24.8227V19.7092H121.967V28.8398H118.718V26.7015L118.786 27.0823C118.485 27.746 118.093 28.2453 117.607 28.5771C117.121 28.909 116.535 29.0764 115.844 29.0764L115.844 29.0765ZM123.88 28.84V19.7094H127.212V28.84H123.88ZM125.552 18.9649C124.918 18.9649 124.426 18.786 124.071 18.4252C123.716 18.0644 123.537 17.5624 123.537 16.9189C123.537 16.2753 123.716 15.776 124.071 15.4154C124.426 15.0546 124.918 14.8729 125.552 14.8729C126.186 14.8729 126.681 15.0546 127.036 15.4154C127.391 15.7762 127.568 16.2753 127.568 16.9189C127.568 17.5624 127.391 18.0644 127.036 18.4252C126.681 18.786 126.186 18.9649 125.552 18.9649ZM132.108 29.0765C131.371 29.0765 130.783 28.9006 130.342 28.5513C129.904 28.2022 129.592 27.7289 129.401 27.1315C129.214 26.5342 129.12 25.8675 129.12 25.1288V19.7094H132.452V24.6872C132.452 25.4144 132.565 25.9166 132.793 26.1936C133.02 26.4705 133.319 26.609 133.691 26.609C133.83 26.609 133.995 26.5686 134.183 26.4936C134.37 26.4186 134.538 26.2513 134.683 26.0001C134.828 25.7462 134.899 25.3537 134.899 24.8227V19.7092H138.231V28.8398H134.982V26.7015L135.05 27.0823C134.749 27.746 134.356 28.2453 133.87 28.5771C133.384 28.909 132.799 29.0764 132.108 29.0764L132.108 29.0765ZM139.263 28.84L142.651 24.1131L139.462 19.7095H143.16L144.826 22.3904L146.302 19.7095H150L146.734 24.4364L150 28.84H146.302L144.593 26.0408L142.961 28.84H139.263Z" fill="#E71B5A"/>
</g>
<defs>
<clipPath id="clip0_2_9">
<rect width="150" height="31" fill="white"/>
</clipPath>
</defs>
</svg>
