<svg width="12" height="12" viewBox="0 0 12 12" fill="none" xmlns="http://www.w3.org/2000/svg">
<path d="M6.00002 7.48749C5.93336 7.48749 5.87086 7.47716 5.81252 7.45649C5.75419 7.43583 5.70002 7.40033 5.65002 7.34999L3.35002 5.04999C3.25836 4.95833 3.21252 4.84166 3.21252 4.69999C3.21252 4.55833 3.25836 4.44166 3.35002 4.34999C3.44169 4.25833 3.55836 4.21249 3.70002 4.21249C3.84169 4.21249 3.95836 4.25833 4.05002 4.34999L6.00002 6.29999L7.95002 4.34999C8.04169 4.25833 8.15836 4.21249 8.30002 4.21249C8.44169 4.21249 8.55836 4.25833 8.65002 4.34999C8.74169 4.44166 8.78752 4.55833 8.78752 4.69999C8.78752 4.84166 8.74169 4.95833 8.65002 5.04999L6.35002 7.34999C6.30002 7.39999 6.24586 7.43549 6.18752 7.45649C6.12919 7.47749 6.06669 7.48783 6.00002 7.48749Z" fill="#EBEBEB"/>
</svg>
