<svg width="20" height="20" viewBox="0 0 20 20" fill="none" xmlns="http://www.w3.org/2000/svg">
<path d="M10 18.3333C8.86113 18.3333 7.78474 18.1144 6.77085 17.6767C5.75696 17.2389 4.87169 16.6417 4.11502 15.885C3.35835 15.1283 2.76113 14.243 2.32335 13.2292C1.88558 12.2153 1.66669 11.1389 1.66669 9.99999C1.66669 8.84721 1.88558 7.76749 2.32335 6.76082C2.76113 5.75416 3.35835 4.87221 4.11502 4.11499C4.87169 3.35777 5.75696 2.76055 6.77085 2.32332C7.78474 1.8861 8.86113 1.66721 10 1.66666C11.1528 1.66666 12.2328 1.88555 13.24 2.32332C14.2472 2.7611 15.1289 3.35832 15.885 4.11499C16.6411 4.87166 17.2384 5.7536 17.6767 6.76082C18.115 7.76804 18.3339 8.84777 18.3334 9.99999C18.3334 11.1389 18.1145 12.2153 17.6767 13.2292C17.2389 14.243 16.6417 15.1286 15.885 15.8858C15.1284 16.643 14.2464 17.2403 13.2392 17.6775C12.232 18.1147 11.1522 18.3333 10 18.3333ZM10 16.625C10.3611 16.125 10.6736 15.6042 10.9375 15.0625C11.2014 14.5208 11.4167 13.9444 11.5834 13.3333H8.41669C8.58335 13.9444 8.79863 14.5208 9.06252 15.0625C9.32641 15.6042 9.63891 16.125 10 16.625ZM7.83335 16.2917C7.58335 15.8333 7.36474 15.3575 7.17752 14.8642C6.9903 14.3708 6.83391 13.8605 6.70835 13.3333H4.25002C4.6528 14.0278 5.15641 14.6319 5.76085 15.1458C6.3653 15.6597 7.05613 16.0417 7.83335 16.2917ZM12.1667 16.2917C12.9445 16.0417 13.6356 15.6597 14.24 15.1458C14.8445 14.6319 15.3478 14.0278 15.75 13.3333H13.2917C13.1667 13.8611 13.0106 14.3717 12.8234 14.865C12.6361 15.3583 12.4172 15.8339 12.1667 16.2917ZM3.54169 11.6667H6.37502C6.33335 11.3889 6.30224 11.1147 6.28169 10.8442C6.26113 10.5736 6.25058 10.2922 6.25002 9.99999C6.24946 9.70777 6.26002 9.42666 6.28169 9.15666C6.30335 8.88666 6.33446 8.61221 6.37502 8.33332H3.54169C3.47224 8.6111 3.4203 8.88555 3.38585 9.15666C3.35141 9.42777 3.33391 9.70888 3.33335 9.99999C3.3328 10.2911 3.3503 10.5725 3.38585 10.8442C3.42141 11.1158 3.47335 11.39 3.54169 11.6667ZM8.04169 11.6667H11.9584C12 11.3889 12.0314 11.1147 12.0525 10.8442C12.0736 10.5736 12.0839 10.2922 12.0834 9.99999C12.0828 9.70777 12.0722 9.42666 12.0517 9.15666C12.0311 8.88666 12 8.61221 11.9584 8.33332H8.04169C8.00002 8.6111 7.96891 8.88555 7.94835 9.15666C7.9278 9.42777 7.91724 9.70888 7.91669 9.99999C7.91613 10.2911 7.92669 10.5725 7.94835 10.8442C7.97002 11.1158 8.00113 11.39 8.04169 11.6667ZM13.625 11.6667H16.4584C16.5278 11.3889 16.58 11.1147 16.615 10.8442C16.65 10.5736 16.6672 10.2922 16.6667 9.99999C16.6661 9.70777 16.6489 9.42666 16.615 9.15666C16.5811 8.88666 16.5289 8.61221 16.4584 8.33332H13.625C13.6667 8.6111 13.6981 8.88555 13.7192 9.15666C13.7403 9.42777 13.7506 9.70888 13.75 9.99999C13.7495 10.2911 13.7389 10.5725 13.7184 10.8442C13.6978 11.1158 13.6667 11.39 13.625 11.6667ZM13.2917 6.66666H15.75C15.3472 5.97221 14.8439 5.36805 14.24 4.85416C13.6361 4.34027 12.945 3.95832 12.1667 3.70832C12.4167 4.16666 12.6356 4.64249 12.8234 5.13582C13.0111 5.62916 13.1672 6.13943 13.2917 6.66666ZM8.41669 6.66666H11.5834C11.4167 6.05555 11.2014 5.47916 10.9375 4.93749C10.6736 4.39582 10.3611 3.87499 10 3.37499C9.63891 3.87499 9.32641 4.39582 9.06252 4.93749C8.79863 5.47916 8.58335 6.05555 8.41669 6.66666ZM4.25002 6.66666H6.70835C6.83335 6.13888 6.98974 5.62832 7.17752 5.13499C7.3653 4.64166 7.58391 4.1661 7.83335 3.70832C7.05558 3.95832 6.36446 4.34027 5.76002 4.85416C5.15558 5.36805 4.65224 5.97221 4.25002 6.66666Z" fill="#EBEBEB"/>
</svg>
